<?xml version="1.0" encoding="iso-8859-1"?>
<!-- Generator: Adobe Illustrator 18.0.0, SVG Export Plug-In . SVG Version: 6.00 Build 0)  -->
<!DOCTYPE svg PUBLIC "-//W3C//DTD SVG 1.1//EN" "http://www.w3.org/Graphics/SVG/1.1/DTD/svg11.dtd">
<svg version="1.1" id="Capa_1" xmlns="http://www.w3.org/2000/svg" xmlns:xlink="http://www.w3.org/1999/xlink" x="0px" y="0px"
	 viewBox="0 0 330 330" style="enable-background:new 0 0 330 330;" xml:space="preserve">
<g>
	<g>
		<g>
			<g>
				<path d="M164.999,95.342c-1.97,0-3.91-0.8-5.3-2.2c-1.4-1.399-2.2-3.329-2.2-5.3c0-1.979,0.8-3.91,2.2-5.31
					c1.39-1.391,3.32-2.19,5.3-2.19c1.98,0,3.91,0.8,5.3,2.19c1.4,1.399,2.2,3.33,2.2,5.31c0,1.971-0.8,3.9-2.2,5.3
					C168.909,94.542,166.969,95.342,164.999,95.342z"/>
			</g>
		</g>
		<g>
			<g>
				<path d="M227.679,116.063c-1.98,0-3.91-0.801-5.31-2.2c-1.39-1.391-2.19-3.33-2.19-5.3c0-1.98,0.8-3.91,2.19-5.301
					c1.4-1.399,3.33-2.199,5.31-2.199c1.97,0,3.9,0.8,5.3,2.199c1.4,1.391,2.2,3.32,2.2,5.301c0,1.97-0.8,3.909-2.2,5.3
					C231.58,115.262,229.649,116.063,227.679,116.063z"/>
			</g>
			<g>
				<path d="M102.33,116.063c-1.98,0-3.91-0.801-5.31-2.2c-1.39-1.391-2.19-3.33-2.19-5.3c0-1.98,0.8-3.91,2.19-5.301
					c1.4-1.399,3.33-2.199,5.31-2.199c1.97,0,3.9,0.8,5.3,2.199c1.39,1.391,2.2,3.32,2.2,5.301c0,1.97-0.81,3.909-2.2,5.3
					C106.229,115.262,104.299,116.063,102.33,116.063z"/>
			</g>
		</g>
		<path d="M311.706,233.105c2.739-4.398,4.334-9.58,4.334-15.133c0-7.585-2.961-14.487-7.782-19.626
			c3.964-3.822,6.443-9.175,6.443-15.103c0-4.303-1.311-8.299-3.542-11.63C322.443,164.772,330,152.371,330,138.238
			c0-27.98-17.676-53.995-49.772-73.253C249.332,46.447,208.41,36.238,165,36.238c-43.409,0-84.332,10.209-115.228,28.747
			C17.676,84.243,0,110.258,0,138.238c0,14.133,7.556,26.533,18.84,33.375c-2.231,3.332-3.541,7.328-3.541,11.631
			c0,5.929,2.48,11.281,6.444,15.104c-4.82,5.14-7.783,12.039-7.783,19.625c0,5.552,1.59,10.736,4.328,15.135
			C9.333,235.423,0,241.555,0,257.806c0,19.826,14.353,35.956,31.995,35.956h266.012c17.641,0,31.993-16.13,31.993-35.956
			C330,241.551,320.663,235.42,311.706,233.105z M15,138.238c0-22.504,15.09-43.951,42.49-60.391
			C86.089,60.688,124.27,51.238,165,51.238c40.73,0,78.912,9.45,107.511,26.609C299.91,94.287,315,115.734,315,138.238
			c0,13.234-10.766,24.002-24,24.002H39C25.766,162.24,15,151.473,15,138.238z M36.301,189.246c-3.31,0-6.002-2.692-6.002-6.002
			c0-3.309,2.692-6.002,6.002-6.002H293.7c3.309,0,6.001,2.692,6.001,6.002c0,3.31-2.692,6.002-6.001,6.002H36.301z M42.688,204.246
			h41.093c5.975,1.563,42.105,11.37,72.614,27.456H42.688c-7.57,0-13.728-6.159-13.728-13.73
			C28.96,210.404,35.119,204.246,42.688,204.246z M132.009,204.246h114.022c-21.815,13.345-39.056,29.949-47.582,38.89
			C181.88,226.405,155.186,213.315,132.009,204.246z M280.223,204.246h7.089c7.57,0,13.729,6.158,13.729,13.727
			c0,7.57-6.159,13.73-13.729,13.73h-54.123C246.198,221.283,262.575,210.454,280.223,204.246z M298.007,278.762H31.995
			c-9.371,0-16.995-9.4-16.995-20.956c0-6.707,1.183-11.104,16.995-11.104h147.986c4.869,3.864,9.122,7.954,12.472,12.255
			c1.386,1.779,3.5,2.839,5.754,2.889c0.055,0.001,0.109,0.001,0.164,0.001c2.195,0,4.284-0.963,5.711-2.638
			c0.123-0.145,4.547-5.287,12.05-12.507h81.874c15.811,0,16.993,4.396,16.993,11.104C315,269.361,307.377,278.762,298.007,278.762z
			"/>
	</g>
</g>
<g>
</g>
<g>
</g>
<g>
</g>
<g>
</g>
<g>
</g>
<g>
</g>
<g>
</g>
<g>
</g>
<g>
</g>
<g>
</g>
<g>
</g>
<g>
</g>
<g>
</g>
<g>
</g>
<g>
</g>
</svg>
